<svg enable-background="new 0 0 612 612" height="612" viewBox="0 0 612 612" width="612" xmlns="http://www.w3.org/2000/svg"><path d="m319.276 402.139h-198.162c-6.62 0-11.604-6.904-11.604-16.064 0-9.158 4.983-16.041 11.604-16.041h198.164c6.619 0 11.604 6.906 11.604 16.041-.002 9.136-4.985 16.064-11.606 16.064zm-197.047-11.864h195.932c.403-.736.854-2.184.854-4.201 0-1.992-.475-3.463-.854-4.176h-195.932c-.403.736-.854 2.184-.854 4.176 0 2.018.474 3.465.854 4.201z"/><path d="m280.289 448.934h-198.138c-6.62 0-11.604-6.904-11.604-16.064s4.983-16.041 11.604-16.041h198.139c6.62 0 11.604 6.904 11.604 16.041-.001 9.159-4.984 16.064-11.605 16.064zm-196.999-11.866h195.885c.38-.736.854-2.184.854-4.199 0-1.994-.498-3.465-.854-4.176h-195.909c-.38.734-.854 2.182-.854 4.176 0 2.016.474 3.465.878 4.199z"/><path d="m338.688 495.727h-198.14c-6.597 0-11.58-6.904-11.58-16.064 0-9.135 4.983-16.041 11.58-16.041h198.163c6.62 0 11.627 6.906 11.627 16.041 0 9.159-5.007 16.064-11.65 16.064zm-197.001-11.864h195.908c.403-.736.878-2.184.878-4.201 0-2.586-.807-4.248-1.163-4.604l-195.624.451c-.403.736-.854 2.184-.854 4.176.001 1.971.452 3.442.855 4.178z"/><path d="m496.842 447.914c-11.699 0-20.312-.357-32.484-.855l-4.983-.213h-106.023c-6.549 0-11.864-5.314-11.864-11.865s5.314-11.865 11.864-11.865l112.002.215c11.794.498 20.146.83 31.489.83 50.401 0 91.43-41.027 91.43-91.428 0-50.402-41.028-91.406-91.43-91.406-13.265 0-26.196 2.871-38.394 8.543-3.181 1.471-6.764 1.471-9.943.023-3.156-1.446-5.505-4.199-6.454-7.521-17.346-60.272-73.3-102.368-136.062-102.368-49.997 0-94.988 43.852-120.426 84.879-2.99 4.817-8.993 6.882-14.261 4.841-12.505-4.697-25.438-7.07-38.441-7.07-50.33 0-109.131 23.942-109.131 91.404 0 30.824 13.122 60.344 35.997 81.014 4.864 4.389 5.268 11.887.854 16.752-4.39 4.863-11.865 5.268-16.753.854-27.859-25.155-43.829-61.082-43.829-98.621 0-68.862 53.391-115.158 132.86-115.158 12.695 0 25.319 1.851 37.658 5.529 29.59-43.994 79.113-88.154 135.47-88.154 68.933 0 130.819 43.472 154.762 107.185 11.675-3.892 23.753-5.861 36.092-5.861 63.499 0 115.158 51.658 115.158 115.159 0 63.499-51.658 115.157-115.158 115.157z"/></svg>